<svg width="400" height="500" viewBox="0 0 400 500" fill="none" xmlns="http://www.w3.org/2000/svg">
  <rect width="400" height="500" fill="#EFE5DC"/>
  <!-- Body/shoulders - wider for male -->
  <ellipse cx="200" cy="480" rx="160" ry="85" fill="#722F37" opacity="0.25"/>
  <rect x="115" y="355" width="170" height="165" rx="18" fill="#722F37" opacity="0.2"/>
  <!-- Neck -->
  <rect x="180" y="292" width="40" height="72" rx="10" fill="#C8A882"/>
  <!-- Head - slightly wider jaw -->
  <ellipse cx="200" cy="240" rx="85" ry="88" fill="#C8A882"/>
  <!-- Jaw definition -->
  <path d="M128 258 Q128 300 200 312 Q272 300 272 258" fill="#BDA07A"/>
  <!-- Hair - blonde -->
  <path d="M140 196 Q132 232 138 258 Q164 288 200 286 Q236 288 262 258 Q268 232 260 196 Q240 158 200 154 Q160 158 140 196Z" fill="#D4A853"/>
  <!-- Features -->
  <ellipse cx="176" cy="237" rx="8" ry="9" fill="#3A2010" opacity="0.85"/>
  <ellipse cx="224" cy="237" rx="8" ry="9" fill="#3A2010" opacity="0.85"/>
  <path d="M186 268 Q200 276 214 268" stroke="#7A3A2A" stroke-width="2.5" fill="none" stroke-linecap="round"/>
</svg>
