<svg width="400" height="500" viewBox="0 0 400 500" fill="none" xmlns="http://www.w3.org/2000/svg">
  <rect width="400" height="500" fill="#F8F0E8"/>
  <!-- Body/shoulders - wider for male -->
  <ellipse cx="200" cy="480" rx="160" ry="85" fill="#722F37" opacity="0.25"/>
  <rect x="115" y="355" width="170" height="165" rx="18" fill="#722F37" opacity="0.2"/>
  <!-- Neck -->
  <rect x="180" y="292" width="40" height="72" rx="10" fill="#C8A882"/>
  <!-- Head - slightly wider jaw -->
  <ellipse cx="200" cy="240" rx="85" ry="88" fill="#C8A882"/>
  <!-- Jaw definition -->
  <path d="M128 258 Q128 300 200 312 Q272 300 272 258" fill="#BDA07A"/>
  <!-- Hair - fade cut -->
  <path d="M142 198 Q138 220 140 240 Q162 272 200 270 Q238 272 260 240 Q262 220 258 198 Q240 162 200 158 Q160 162 142 198Z" fill="#3A2010"/>
  <!-- Features -->
  <ellipse cx="176" cy="237" rx="8" ry="9" fill="#3A2010" opacity="0.85"/>
  <ellipse cx="224" cy="237" rx="8" ry="9" fill="#3A2010" opacity="0.85"/>
  <path d="M186 268 Q200 276 214 268" stroke="#7A3A2A" stroke-width="2.5" fill="none" stroke-linecap="round"/>
</svg>
